<?xml version="1.0" standalone="no"?>
<!DOCTYPE svg PUBLIC "-//W3C//DTD SVG 20010904//EN"
 "http://www.w3.org/TR/2001/REC-SVG-20010904/DTD/svg10.dtd">
<svg version="1.0" xmlns="http://www.w3.org/2000/svg"
 width="800.000000pt" height="600.000000pt" viewBox="0 0 800.000000 600.000000"
 preserveAspectRatio="xMidYMid meet">

<g transform="translate(0.000000,600.000000) scale(0.100000,-0.100000)"
fill="#000000" stroke="none">
<path d="M3259 5960 c-496 -153 -911 -407 -1270 -778 -443 -456 -725 -1060
-799 -1707 -27 -232 -10 -652 35 -866 9 -40 14 -74 12 -76 -4 -3 -238 91 -347
139 -159 71 -250 83 -265 35 -10 -34 -22 -504 -13 -567 5 -37 3 -59 -5 -69 -7
-8 -52 -45 -102 -82 -137 -102 -305 -282 -305 -327 0 -14 13 -36 31 -53 70
-65 893 -438 934 -423 12 5 15 -3 15 -43 0 -27 5 -54 12 -61 17 -17 63 -15 78
2 6 8 57 241 112 518 55 277 103 506 107 510 9 10 190 62 271 78 50 10 75 10
108 1 l42 -12 0 -64 0 -64 38 -10 c20 -5 144 -33 274 -62 131 -29 235 -55 233
-57 -14 -15 -468 -76 -495 -67 -10 3 -36 -4 -58 -15 -35 -18 -41 -26 -45 -63
-3 -23 -16 -96 -31 -162 -32 -147 -186 -1066 -186 -1110 0 -17 5 -36 12 -43
14 -14 57 -16 76 -3 18 11 37 90 62 256 11 77 34 223 51 325 52 325 89 579 90
622 1 84 -5 84 184 7 317 -130 483 -181 710 -218 851 -140 1771 -130 2650 30
250 46 533 124 764 210 57 21 105 39 107 39 2 0 4 -17 4 -39 0 -53 66 -842 85
-1021 9 -80 20 -158 26 -174 5 -16 8 -30 6 -32 -8 -9 -345 -100 -479 -130
-476 -106 -1133 -181 -1873 -214 -891 -40 -1630 46 -2280 265 -147 49 -162 53
-182 39 -27 -17 -31 -65 -8 -88 22 -21 321 -118 515 -166 276 -68 549 -113
885 -146 222 -21 924 -30 1225 -15 665 33 1279 110 1660 206 259 65 584 190
605 232 6 11 16 27 23 35 13 16 3 141 -52 668 -14 129 -32 311 -41 403 -10
111 -23 186 -36 222 -25 67 -38 72 -224 80 -139 6 -338 22 -395 32 -37 6 -35
6 403 128 l137 38 0 119 0 120 48 -35 c104 -77 237 -127 334 -127 47 0 48 -1
48 -30 0 -113 167 -1012 196 -1057 17 -27 41 -29 73 -7 22 16 23 22 17 78 -3
34 -8 70 -11 81 -5 17 1 23 32 34 21 7 169 84 328 171 493 267 503 272 525
265 20 -6 23 -2 23 36 0 26 -57 101 -111 147 -28 23 -79 81 -113 130 -34 48
-73 99 -86 113 l-23 25 10 190 c5 104 11 254 12 334 3 144 3 145 -19 148 -13
2 -23 -1 -23 -6 0 -5 -33 -12 -73 -15 -70 -5 -318 -80 -504 -152 -43 -16 -63
-20 -63 -12 0 7 9 73 20 147 114 753 -102 1575 -574 2187 -377 491 -891 843
-1499 1027 l-118 36 -707 -1 -707 -1 -126 -38z m1076 -110 c1051 -98 1940
-785 2302 -1779 51 -142 100 -337 129 -521 36 -224 38 -539 5 -758 -25 -165
-48 -273 -62 -287 -11 -11 -91 -36 -97 -30 -2 2 5 43 16 92 136 583 69 1178
-192 1719 -259 536 -677 955 -1211 1214 -263 128 -463 188 -800 242 -108 17
-531 17 -655 -1 -625 -86 -1184 -375 -1588 -821 -381 -420 -608 -919 -673
-1475 -34 -300 2 -730 83 -993 10 -35 18 -67 16 -72 -2 -5 -28 3 -58 18 l-55
27 -22 90 c-55 223 -68 341 -68 640 0 220 4 305 18 395 57 365 185 716 375
1024 210 341 544 675 890 889 320 198 727 339 1087 377 61 6 119 13 130 14 51
8 331 5 430 -4z m-130 -984 c53 -24 119 -89 137 -134 5 -15 13 -49 17 -76 6
-47 7 -49 58 -68 37 -13 67 -35 102 -74 l50 -55 57 17 c161 47 338 -36 416
-194 19 -39 23 -63 23 -137 0 -49 -3 -102 -7 -116 -7 -23 -2 -30 42 -60 55
-38 109 -104 135 -164 39 -95 27 -234 -28 -314 l-24 -35 28 -23 c15 -13 31
-33 34 -44 7 -22 -221 -1811 -235 -1847 -7 -17 -18 -22 -45 -22 -35 0 -36 1
-31 33 8 43 26 186 26 198 0 5 -340 9 -865 9 l-866 0 5 -32 c9 -52 26 -188 26
-204 0 -18 -69 -19 -76 -1 -2 7 -58 426 -124 931 -83 642 -116 925 -110 941 5
13 20 31 33 39 l23 16 -35 72 c-32 65 -36 80 -36 152 1 66 5 92 27 138 31 66
105 150 149 168 29 12 30 15 22 49 -4 20 -8 72 -8 116 1 99 30 171 100 240 89
89 234 127 348 91 l49 -15 56 58 c41 42 70 61 103 71 46 14 47 14 52 66 18
177 210 286 372 210z m3374 -2246 c-20 -107 -46 -336 -54 -463 l-5 -78 58 -62
c31 -35 78 -90 104 -124 27 -36 82 -87 129 -122 52 -38 77 -62 68 -65 -246
-88 -472 -185 -676 -293 -79 -41 -150 -73 -160 -71 -13 2 -23 40 -50 183 -45
242 -96 467 -136 600 -32 107 -33 110 -62 111 -82 3 -296 53 -318 74 -5 4 11
11 35 15 84 14 290 86 542 190 140 58 303 121 363 140 59 20 119 42 133 50 46
26 47 21 29 -85z m-6439 -172 c201 -77 395 -151 432 -164 97 -33 99 -36 28
-50 -83 -18 -154 -53 -157 -79 -1 -11 -18 -62 -37 -113 -60 -157 -171 -561
-202 -735 -6 -34 -8 -36 -23 -24 -15 13 -464 201 -753 315 -65 25 -118 51
-118 56 0 6 81 89 180 186 211 207 231 239 232 365 0 78 -8 244 -18 353 l-6
63 39 -16 c21 -9 202 -79 403 -157z m1470 -693 c0 -96 3 -135 12 -135 6 0 9
-3 5 -6 -3 -4 -39 4 -79 16 -117 35 -360 133 -351 140 4 4 55 18 113 30 109
23 244 63 270 80 8 5 18 10 23 10 4 0 7 -61 7 -135z m3170 53 c66 -23 153 -42
273 -58 48 -7 86 -14 84 -16 -3 -3 -430 -94 -442 -94 -3 0 -5 45 -5 101 0 92
2 101 18 94 9 -4 42 -16 72 -27z m-3005 -222 c61 -13 103 -24 94 -25 -18 -1
-222 39 -228 45 -8 8 26 3 134 -20z m158 -33 c-7 -2 -21 -2 -30 0 -10 3 -4 5
12 5 17 0 24 -2 18 -5z m54 -9 c-3 -3 -12 -4 -19 -1 -8 3 -5 6 6 6 11 1 17 -2
13 -5z m1518 -64 c-55 -4 -255 -8 -445 -8 -190 0 -390 4 -445 8 -56 4 138 7
445 7 307 0 501 -3 445 -7z"/>
<path d="M4015 4793 c-75 -39 -112 -108 -102 -192 7 -59 0 -66 -66 -76 -64
-10 -123 -54 -149 -111 -11 -25 -26 -48 -35 -51 -8 -3 -36 4 -62 17 -56 27
-141 36 -198 21 -152 -41 -242 -213 -187 -356 29 -74 25 -86 -35 -117 -68 -35
-114 -79 -140 -133 -48 -103 -33 -215 40 -298 l41 -47 973 0 973 0 32 31 c56
57 75 105 75 194 0 63 -5 89 -22 121 -31 58 -79 103 -139 131 -29 13 -55 30
-58 38 -3 8 4 34 14 57 30 66 27 170 -6 236 -66 133 -216 186 -359 127 -33
-14 -66 -25 -73 -25 -7 0 -21 19 -31 43 -20 46 -78 104 -114 112 -12 3 -40 9
-62 13 l-40 8 -5 79 c-3 44 -11 89 -17 100 -17 31 -65 73 -96 84 -41 16 -117
13 -152 -6z m603 -559 c108 -45 160 -167 113 -269 -32 -71 -79 -94 -105 -53
-8 13 -5 24 13 49 35 47 38 106 9 149 -44 65 -111 78 -184 35 -41 -24 -43 -24
-65 -6 -22 18 -23 19 -5 46 37 57 148 81 224 49z m-757 -16 c83 -24 156 -121
147 -193 -7 -64 -68 -57 -79 9 -3 21 -15 49 -26 64 -24 32 -89 58 -125 49 -45
-12 -87 -55 -99 -103 -13 -50 -30 -68 -57 -59 -28 8 -33 39 -16 93 21 67 65
114 131 138 47 17 75 17 124 2z m482 -303 c44 -18 96 -69 113 -112 20 -47 18
-100 -4 -112 -26 -14 -62 13 -62 46 0 84 -113 142 -190 97 -32 -19 -60 -63
-60 -93 0 -12 -9 -30 -20 -41 -17 -17 -24 -18 -41 -9 -19 9 -21 18 -17 61 13
130 158 214 281 163z m-768 -16 c61 -17 107 -55 103 -87 -4 -35 -39 -41 -74
-13 -85 67 -204 5 -204 -105 0 -25 7 -51 18 -65 28 -37 33 -57 16 -74 -21 -21
-37 -19 -62 8 -100 106 -47 289 95 334 49 15 60 15 108 2z m1411 -144 c72 -42
125 -162 89 -199 -32 -31 -57 -16 -70 42 -4 18 -17 45 -31 61 -71 84 -191 55
-218 -54 -15 -56 -36 -76 -63 -59 -64 40 23 204 123 232 55 15 120 6 170 -23z"/>
<path d="M3025 3343 c3 -16 46 -343 95 -728 49 -385 93 -717 96 -737 l6 -38
142 0 142 0 -28 356 -27 356 -36 43 c-53 65 -75 120 -74 190 0 69 16 121 51
168 l25 32 -13 170 c-7 94 -13 180 -13 193 l-1 22 -185 0 -184 0 4 -27z"/>
<path d="M3470 3358 c0 -27 22 -293 25 -296 1 -1 29 13 61 32 57 34 225 96
258 96 13 0 16 14 16 90 l0 90 -180 0 c-133 0 -180 -3 -180 -12z"/>
<path d="M3910 3293 l0 -78 185 0 185 0 0 78 0 77 -185 0 -185 0 0 -77z"/>
<path d="M4360 3282 l0 -87 58 -14 c76 -17 169 -56 227 -92 26 -17 49 -28 52
-26 4 5 22 219 23 275 l0 32 -180 0 -180 0 0 -88z"/>
<path d="M4790 3177 l-13 -192 27 -39 c77 -113 66 -242 -28 -352 l-33 -39 -27
-335 c-14 -184 -26 -345 -26 -357 0 -23 2 -23 140 -23 137 0 140 0 145 23 2
12 45 339 95 727 49 388 93 722 96 743 l6 37 -184 0 -184 0 -14 -193z"/>
<path d="M3894 3125 c-290 -52 -474 -184 -474 -339 0 -96 74 -183 215 -251
150 -74 236 -90 465 -90 181 0 202 2 293 27 481 134 514 461 62 615 -149 50
-399 68 -561 38z m484 -147 c17 -17 15 -55 -4 -62 -9 -3 -136 -6 -283 -6 -274
0 -291 2 -291 40 0 38 16 40 295 40 197 0 274 -3 283 -12z m-224 -170 c8 -13
8 -23 0 -35 -10 -16 -31 -18 -169 -21 -162 -3 -185 2 -185 37 0 38 19 42 184
39 139 -3 160 -5 170 -20z m230 -160 c8 -13 8 -23 0 -35 -10 -16 -37 -18 -284
-21 -280 -2 -300 0 -300 37 0 40 14 41 299 39 248 -3 275 -5 285 -20z"/>
<path d="M3541 2447 c0 -23 10 -168 22 -322 l22 -280 144 -3 144 -3 -6 122
c-4 67 -7 188 -7 268 l0 146 -87 23 c-49 12 -121 38 -160 57 l-73 34 1 -42z"/>
<path d="M4575 2455 c-38 -19 -107 -45 -152 -57 l-81 -23 -6 -90 c-3 -49 -7
-170 -9 -267 l-4 -178 144 0 143 0 0 28 c0 33 37 518 45 580 2 23 1 42 -3 41
-4 0 -38 -16 -77 -34z"/>
<path d="M3940 2222 c0 -77 3 -194 7 -260 l6 -122 143 0 142 0 6 73 c3 39 7
156 9 260 l4 187 -159 0 -158 0 0 -138z"/>
<path d="M5960 1200 c0 -5 5 -10 11 -10 5 0 7 5 4 10 -3 6 -8 10 -11 10 -2 0
-4 -4 -4 -10z"/>
<path d="M6066 993 c-6 -14 -5 -15 5 -6 7 7 10 15 7 18 -3 3 -9 -2 -12 -12z"/>
<path d="M5548 862 c-3 -22 -1 -29 9 -25 15 6 17 22 4 42 -6 9 -10 4 -13 -17z"/>
<path d="M4020 815 c0 -8 4 -15 10 -15 5 0 7 7 4 15 -4 8 -8 15 -10 15 -2 0
-4 -7 -4 -15z"/>
<path d="M5321 813 c0 -4 4 -17 9 -28 8 -19 9 -19 9 2 1 12 -3 25 -9 28 -5 3
-10 3 -9 -2z"/>
<path d="M5445 810 c3 -5 8 -10 11 -10 2 0 4 5 4 10 0 6 -5 10 -11 10 -5 0 -7
-4 -4 -10z"/>
<path d="M3261 664 c0 -11 3 -14 6 -6 3 7 2 16 -1 19 -3 4 -6 -2 -5 -13z"/>
</g>
</svg>
