<?xml version="1.0" standalone="no"?>
<!DOCTYPE svg PUBLIC "-//W3C//DTD SVG 20010904//EN"
 "http://www.w3.org/TR/2001/REC-SVG-20010904/DTD/svg10.dtd">
<svg version="1.0" xmlns="http://www.w3.org/2000/svg"
 width="800.000000pt" height="600.000000pt" viewBox="0 0 800.000000 600.000000"
 preserveAspectRatio="xMidYMid meet">

<g transform="translate(0.000000,600.000000) scale(0.100000,-0.100000)"
fill="#000000" stroke="none">
<path d="M3915 5853 c-550 -44 -1019 -221 -1446 -544 -146 -110 -374 -333
-487 -476 -240 -304 -407 -643 -502 -1018 -63 -249 -75 -352 -75 -655 0 -278
6 -345 52 -565 34 -165 40 -176 101 -202 29 -12 52 -21 52 -20 0 1 -16 64 -35
140 -58 230 -78 390 -78 637 0 141 5 256 16 335 110 832 590 1539 1324 1951
269 151 551 247 880 299 137 22 480 31 628 16 767 -77 1463 -490 1898 -1126
223 -327 356 -666 428 -1090 19 -108 23 -170 23 -370 1 -256 -10 -357 -60
-579 -13 -60 -23 -110 -22 -112 2 -1 25 5 52 14 58 20 55 13 91 221 123 710
-55 1461 -483 2044 -416 567 -1026 944 -1722 1066 -201 35 -455 49 -635 34z"/>
<path d="M4007 4876 c-47 -17 -99 -57 -127 -97 -25 -34 -50 -109 -50 -148 0
-23 -7 -29 -50 -44 -48 -17 -132 -86 -142 -116 -3 -11 -16 -10 -78 5 -86 21
-167 12 -247 -27 -141 -68 -225 -256 -180 -401 l15 -47 -43 -26 c-60 -35 -121
-107 -145 -173 -37 -99 -25 -234 29 -316 l20 -29 -30 -28 c-23 -21 -29 -36
-29 -68 0 -22 52 -439 115 -927 63 -487 115 -892 115 -899 0 -13 66 -33 75
-23 3 3 -2 56 -10 118 -8 63 -15 117 -15 122 0 4 389 8 865 8 l865 0 -1 -27
c0 -16 -6 -68 -13 -118 -7 -49 -12 -92 -10 -94 2 -2 19 0 38 3 30 6 35 11 40
44 4 20 58 434 121 920 82 630 112 890 105 907 -5 13 -20 31 -34 40 l-25 17
25 39 c100 160 46 381 -119 486 -35 22 -38 27 -30 51 4 15 8 65 8 112 0 76 -3
93 -33 152 -74 150 -238 226 -399 185 l-62 -16 -58 57 c-43 43 -70 62 -105 71
-47 13 -48 14 -48 55 -1 82 -63 176 -145 218 -51 27 -156 34 -208 14z m173
-82 c30 -15 73 -59 90 -94 8 -14 13 -52 13 -85 0 -67 9 -85 44 -85 63 0 153
-66 173 -126 15 -45 37 -49 105 -18 50 23 67 26 129 22 106 -7 185 -57 231
-148 36 -72 41 -133 16 -207 -30 -88 -28 -97 21 -119 77 -35 115 -70 148 -138
29 -58 32 -72 28 -133 -4 -76 -26 -129 -73 -179 l-32 -34 -975 0 -974 0 -37
38 c-44 45 -77 125 -77 185 0 103 74 215 169 256 27 11 53 26 56 31 3 5 -4 37
-16 70 -56 155 16 317 164 366 65 22 159 15 215 -14 23 -12 49 -22 57 -22 8 0
24 19 36 43 40 79 86 114 168 126 l46 6 5 80 c6 83 19 114 69 159 45 41 142
50 201 20z m-790 -1416 c0 -2 7 -90 15 -197 14 -190 14 -194 -5 -222 -84 -116
-79 -238 12 -357 l42 -53 27 -352 c15 -194 25 -355 22 -359 -2 -5 -67 -8 -143
-8 l-139 0 -6 33 c-20 118 -193 1502 -189 1508 4 8 364 14 364 7z m442 -63 c1
-36 2 -77 2 -91 1 -25 -5 -28 -89 -53 -88 -27 -174 -66 -226 -102 l-26 -19 -6
58 c-4 31 -9 105 -13 165 l-7 107 182 0 181 0 2 -65z m449 61 c2 -2 3 -40 1
-83 l-3 -78 -185 0 -184 0 0 83 0 82 183 0 c101 0 186 -2 188 -4z m438 -63
c-1 -97 -13 -240 -20 -248 -4 -3 -33 10 -65 29 -57 34 -225 96 -258 96 -13 0
-16 14 -16 88 0 49 3 92 7 95 3 4 84 7 180 7 l173 0 -1 -67z m447 54 c3 -8
-39 -355 -94 -773 l-98 -759 -134 -3 c-74 -1 -139 -1 -145 2 -8 3 -3 106 17
361 l28 357 35 42 c93 114 102 255 21 360 l-23 31 14 185 c8 102 16 191 18
198 6 18 354 17 361 -1z m-786 -256 c178 -45 336 -147 381 -246 86 -188 -164
-383 -543 -425 -356 -40 -736 103 -794 297 -24 80 2 148 84 225 78 73 188 123
352 159 120 26 396 21 520 -10z m-767 -656 c41 -19 114 -44 161 -56 l86 -22 0
-77 c0 -42 3 -165 7 -273 l6 -197 -142 0 c-104 0 -143 3 -146 13 -2 6 -13 143
-25 302 -11 160 -23 302 -25 318 -2 15 -3 27 -1 27 2 0 37 -16 79 -35z m1043
-22 c-3 -32 -15 -177 -27 -323 -11 -145 -23 -268 -25 -272 -9 -14 -274 -10
-279 5 -3 6 -1 129 3 271 l7 260 90 26 c50 14 119 40 155 57 36 17 69 32 73
32 5 1 6 -25 3 -56z m-405 -330 c-2 -142 -5 -261 -8 -265 -4 -7 -292 -12 -294
-5 -2 8 -16 523 -14 527 2 3 74 4 162 3 l158 -2 -4 -258z"/>
<path d="M4471 4239 c-52 -21 -82 -50 -79 -78 4 -34 39 -40 74 -12 19 15 41
21 77 21 44 0 53 -4 88 -39 33 -33 39 -45 39 -83 0 -30 -8 -55 -25 -81 -21
-30 -24 -41 -15 -57 14 -26 42 -25 67 3 91 100 50 268 -79 321 -41 18 -110 20
-147 5z"/>
<path d="M3741 4215 c-77 -24 -141 -105 -141 -178 0 -71 57 -74 72 -3 11 50
33 81 73 100 87 42 166 -6 189 -115 7 -32 30 -43 57 -29 22 12 24 42 8 91 -37
108 -151 168 -258 134z"/>
<path d="M4173 3905 c-68 -34 -105 -90 -107 -159 -1 -49 0 -51 27 -54 16 -2
29 2 31 10 33 112 67 148 139 148 69 0 108 -36 134 -125 7 -25 14 -30 38 -30
24 0 31 5 33 25 10 66 -50 158 -123 191 -56 26 -112 24 -172 -6z"/>
<path d="M3425 3877 c-87 -49 -126 -158 -91 -251 20 -51 58 -91 81 -82 27 10
29 38 6 79 -42 73 -25 146 42 187 44 27 80 25 137 -7 41 -23 51 -25 64 -14 52
43 -34 111 -141 111 -41 0 -69 -7 -98 -23z"/>
<path d="M4838 3780 c-81 -15 -147 -84 -163 -171 -6 -35 11 -69 35 -69 16 0
40 31 40 51 0 55 66 119 123 119 39 0 93 -27 112 -56 8 -13 19 -40 23 -60 14
-71 72 -68 72 3 0 115 -120 206 -242 183z"/>
<path d="M3816 2974 c-19 -19 -20 -36 -4 -52 17 -17 549 -17 566 0 18 18 14
46 -7 58 -12 6 -120 10 -280 10 -223 0 -262 -2 -275 -16z"/>
<path d="M3818 2819 c-10 -5 -18 -18 -18 -27 0 -38 19 -42 180 -42 108 0 160
4 168 12 18 18 14 46 -7 58 -25 13 -300 13 -323 -1z"/>
<path d="M3818 2659 c-21 -12 -23 -42 -4 -58 9 -8 93 -11 286 -9 247 3 274 5
284 21 8 12 8 22 0 35 -10 15 -36 17 -280 19 -170 2 -275 -1 -286 -8z"/>
<path d="M640 2749 c0 -15 4 -19 16 -15 9 3 25 6 37 6 21 1 21 1 -3 15 -35 20
-50 18 -50 -6z"/>
<path d="M7567 2708 c-11 -5 -76 -29 -145 -53 -70 -23 -239 -88 -376 -145
-253 -103 -405 -157 -508 -180 -32 -7 -55 -17 -52 -21 10 -16 209 -63 303 -71
32 -3 36 -7 53 -58 34 -98 96 -359 138 -580 22 -118 43 -225 46 -237 2 -13 11
-23 18 -23 8 0 88 38 178 84 197 102 307 151 498 223 80 30 149 58 153 62 5 5
-16 25 -45 46 -78 56 -114 92 -173 170 -29 39 -71 88 -94 110 -35 33 -41 45
-41 80 0 70 30 345 51 473 11 68 19 125 17 127 -2 2 -11 -1 -21 -7z"/>
<path d="M705 2571 c14 -125 26 -378 19 -415 -14 -86 -56 -146 -190 -271 -70
-66 -150 -147 -177 -180 -44 -53 -48 -60 -31 -66 11 -4 93 -37 184 -73 91 -35
285 -100 431 -143 l266 -79 52 210 c29 116 84 306 123 423 l70 211 87 27 c127
40 119 36 101 42 -32 11 -515 195 -723 276 l-217 85 5 -47z"/>
<path d="M6350 2171 l0 -120 -37 -10 c-273 -74 -522 -145 -520 -147 8 -8 290
-34 370 -34 106 0 225 -16 243 -31 30 -24 46 -123 84 -509 22 -223 44 -421 48
-441 l7 -36 210 63 c116 35 227 69 248 74 41 12 51 40 14 40 -13 0 -31 8 -40
18 -19 21 -148 663 -178 887 -30 227 -21 205 -78 205 -93 0 -240 58 -333 132
l-38 30 0 -121z"/>
<path d="M1685 2170 c-60 -16 -130 -34 -154 -42 l-44 -13 -101 -506 c-56 -279
-107 -514 -115 -522 -7 -9 -29 -17 -49 -19 -30 -2 11 -19 221 -90 141 -47 257
-82 257 -77 0 31 115 681 135 767 14 56 24 106 24 110 -6 40 54 88 99 79 26
-5 267 23 409 48 47 8 88 15 92 16 5 0 -545 128 -556 129 -2 0 -3 29 -3 65 l0
64 -37 10 c-50 14 -50 14 -178 -19z"/>
<path d="M2570 1876 c-42 -23 -146 -54 -253 -76 -56 -12 -109 -24 -117 -27
-17 -5 157 -78 295 -123 88 -28 153 -46 128 -34 -10 4 -13 42 -13 140 0 74 -3
134 -7 134 -5 -1 -19 -7 -33 -14z"/>
<path d="M5690 1746 c0 -52 3 -97 8 -99 4 -2 106 17 227 42 l220 46 -60 8
c-126 17 -269 49 -328 72 -33 14 -62 25 -64 25 -2 0 -3 -42 -3 -94z"/>
<path d="M7963 1716 c7 -14 15 -26 20 -26 13 0 7 17 -13 35 -19 17 -19 17 -7
-9z"/>
<path d="M1935 1668 c-16 -151 -171 -1136 -184 -1170 l-10 -26 112 -40 c408
-144 862 -258 1142 -286 285 -29 657 -39 1001 -27 993 34 1857 151 2400 324
63 20 70 25 64 43 -17 45 -110 1054 -110 1191 0 49 -2 54 -17 48 -861 -347
-2180 -465 -3353 -300 -329 47 -470 86 -823 226 -108 44 -201 79 -206 79 -5 0
-12 -28 -16 -62z m233 -261 c2 -10 -28 -96 -67 -192 -51 -125 -71 -186 -71
-218 0 -102 111 -183 213 -156 69 18 92 50 172 243 41 99 79 184 84 189 13 13
41 1 41 -17 0 -31 -146 -369 -174 -403 -124 -150 -396 -49 -396 148 0 28 20
90 59 188 96 237 99 243 118 239 10 -2 19 -11 21 -21z m3890 -30 c-2 -16 -17
-24 -68 -37 -36 -9 -75 -21 -87 -28 -50 -28 -72 -127 -39 -177 25 -37 54 -48
149 -55 100 -7 130 -26 130 -80 0 -61 -68 -100 -177 -100 -42 0 -58 4 -63 16
-10 26 14 38 77 40 61 1 115 25 107 47 -2 7 -36 14 -88 18 -48 3 -98 13 -116
22 -49 26 -85 80 -91 136 -11 117 63 200 198 220 56 9 72 4 68 -22z m-3790
-14 c2 -12 -26 -93 -62 -182 -36 -88 -66 -168 -66 -177 0 -47 72 -72 102 -36
8 9 43 87 78 172 34 85 68 161 76 169 15 16 44 8 44 -12 0 -8 -31 -90 -70
-183 -83 -201 -106 -229 -178 -221 -64 7 -107 52 -106 110 0 40 103 308 140
365 18 27 38 24 42 -5z m3820 -90 c2 -17 -3 -23 -20 -27 -93 -17 -103 -21
-103 -41 0 -18 9 -21 80 -26 44 -4 91 -11 105 -17 62 -25 103 -92 103 -169 0
-91 -64 -158 -178 -188 -75 -19 -119 -19 -135 0 -21 25 5 45 59 45 25 0 71 11
101 23 88 36 121 105 85 181 -22 46 -50 59 -148 67 -72 6 -93 11 -113 30 -47
44 -23 107 51 134 59 21 109 16 113 -12z m-459 -26 c6 -8 44 -132 85 -278 74
-263 77 -289 40 -289 -7 0 -15 3 -17 8 -3 4 -39 128 -81 276 -58 205 -73 272
-65 282 14 17 24 18 38 1z m-91 -42 c1 -11 -19 -83 -46 -160 -39 -111 -54
-141 -69 -143 -13 -2 -62 32 -142 98 -66 55 -121 104 -121 108 0 10 21 32 31
32 4 0 51 -36 105 -80 54 -44 102 -80 105 -80 4 0 20 37 35 83 44 134 62 169
81 165 10 -2 19 -12 21 -23z m-2552 -63 c53 -27 75 -49 68 -67 -8 -21 -25 -19
-81 9 -107 53 -210 39 -287 -38 -99 -99 -102 -252 -7 -347 49 -50 120 -79 193
-79 41 0 61 -21 39 -43 -16 -16 -102 -12 -162 8 -62 21 -140 91 -170 152 -33
70 -32 178 3 255 31 66 93 132 151 159 58 27 193 22 253 -9z m2132 -49 c5 -10
42 -134 82 -276 67 -239 71 -260 56 -275 -14 -14 -18 -14 -30 -2 -13 15 -156
509 -156 541 0 32 34 40 48 12z m-1784 -28 c77 -14 141 -25 143 -25 2 0 3 -11
3 -25 0 -31 -16 -32 -160 -6 -58 11 -107 17 -109 15 -8 -7 -81 -448 -77 -459
2 -6 54 -19 116 -29 62 -10 119 -20 126 -23 16 -6 19 -39 4 -48 -15 -9 -277
36 -298 51 -16 12 -14 29 27 276 24 145 48 271 53 281 11 22 6 22 172 -8z
m-365 -38 c25 -17 41 -35 41 -47 0 -32 -24 -34 -65 -6 -66 45 -157 32 -194
-28 -64 -104 0 -216 124 -216 77 0 87 -41 14 -55 -79 -15 -185 46 -210 122
-27 84 8 189 80 235 41 26 53 29 107 26 46 -3 72 -11 103 -31z m1789 10 c6 -6
24 -99 40 -205 16 -106 31 -194 33 -197 3 -2 43 2 90 9 96 14 109 12 109 -14
0 -26 -5 -28 -125 -47 -77 -12 -109 -13 -117 -5 -18 18 -79 444 -66 459 13 16
23 16 36 0z m-99 -29 c4 -13 23 -125 41 -250 19 -125 37 -233 40 -238 5 -8 50
-5 150 10 150 23 177 20 154 -18 -9 -13 -49 -23 -174 -42 -149 -22 -163 -23
-174 -8 -15 20 -91 531 -82 553 8 22 35 18 45 -7z m973 -148 c53 -183 55 -198
32 -207 -25 -9 -39 16 -69 122 -15 55 -31 104 -35 108 -4 5 -18 -22 -30 -60
-24 -72 -45 -113 -59 -113 -5 0 -39 25 -76 55 -36 30 -70 55 -75 55 -5 0 0
-30 11 -67 47 -159 48 -204 7 -188 -16 6 -108 308 -108 353 0 39 38 25 127
-48 48 -39 91 -69 96 -67 6 2 25 47 43 101 60 178 74 173 136 -44z m-1525 140
c58 0 75 -3 80 -16 12 -31 -15 -38 -145 -39 l-127 0 -7 -254 c-3 -150 -10
-257 -16 -263 -6 -6 -18 -8 -28 -4 -15 6 -16 29 -12 287 4 226 8 283 19 290 8
6 47 8 88 5 41 -3 107 -6 148 -6z m241 -2 c8 -11 42 -446 42 -541 0 -31 -24
-47 -43 -28 -16 16 -49 551 -35 568 13 16 23 16 36 1z m116 -10 c3 -13 12
-140 20 -283 12 -209 13 -262 3 -273 -10 -10 -16 -10 -29 0 -13 11 -19 61 -33
285 -9 150 -14 277 -10 283 12 19 44 11 49 -12z m-1004 -64 c12 -12 12 -16 -2
-30 -13 -14 -23 -14 -67 -5 -82 17 -103 15 -99 -11 2 -18 13 -24 53 -33 32 -6
51 -16 53 -26 5 -28 -19 -38 -73 -28 -96 17 -95 17 -95 52 1 45 17 109 30 117
16 10 183 -20 200 -36z m721 -41 c5 -5 7 -17 3 -26 -5 -14 -21 -17 -85 -17
-77 0 -79 -1 -79 -24 0 -23 4 -25 53 -28 48 -3 52 -5 52 -28 0 -24 -3 -25 -68
-28 -42 -2 -74 2 -83 9 -18 15 -19 130 -1 148 14 15 192 10 208 -6z m-812
-158 c7 -7 11 -21 7 -30 -5 -15 -15 -16 -60 -11 -44 6 -54 4 -60 -9 -10 -26 0
-33 57 -40 73 -10 97 -21 97 -45 0 -24 -28 -26 -129 -9 -88 15 -94 21 -86 83
12 86 17 90 94 82 36 -4 72 -13 80 -21z m759 -72 c4 -25 -20 -34 -78 -30 l-35
2 -3 -97 c-2 -73 -7 -99 -18 -109 -14 -11 -18 -10 -31 6 -11 16 -13 42 -8 125
4 58 8 111 11 118 3 9 25 12 81 10 72 -3 78 -5 81 -25z"/>
<path d="M2698 1593 c7 -3 16 -2 19 1 4 3 -2 6 -13 5 -11 0 -14 -3 -6 -6z"/>
<path d="M2748 1583 c7 -3 16 -2 19 1 4 3 -2 6 -13 5 -11 0 -14 -3 -6 -6z"/>
<path d="M2798 1573 c7 -3 16 -2 19 1 4 3 -2 6 -13 5 -11 0 -14 -3 -6 -6z"/>
<path d="M3655 1480 c143 -10 670 -10 805 0 60 4 -112 7 -405 7 -294 0 -463
-3 -400 -7z"/>
</g>
</svg>
